<?xml version="1.0" encoding="UTF-8" standalone="no"?>
<svg
   xmlns:dc="http://purl.org/dc/elements/1.1/"
   xmlns:cc="http://creativecommons.org/ns#"
   xmlns:rdf="http://www.w3.org/1999/02/22-rdf-syntax-ns#"
   xmlns:svg="http://www.w3.org/2000/svg"
   xmlns="http://www.w3.org/2000/svg"
   xmlns:sodipodi="http://sodipodi.sourceforge.net/DTD/sodipodi-0.dtd"
   xmlns:inkscape="http://www.inkscape.org/namespaces/inkscape"
   width="11in"
   height="7.125in"
   viewBox="0 0 11 7.125"
   version="1.1"
   preserveAspectRatio="xMidYMid meet"
   id="svg4853"
   sodipodi:docname="boxController.svg"
   inkscape:version="0.92.4 (5da689c313, 2019-01-14)">
  <metadata
     id="metadata4859">
    <rdf:RDF>
      <cc:Work
         rdf:about="">
        <dc:format>image/svg+xml</dc:format>
        <dc:type
           rdf:resource="http://purl.org/dc/dcmitype/StillImage" />
        <dc:title></dc:title>
      </cc:Work>
    </rdf:RDF>
  </metadata>
  <defs
     id="defs4857" />
  <sodipodi:namedview
     pagecolor="#ffffff"
     bordercolor="#666666"
     borderopacity="1"
     objecttolerance="10"
     gridtolerance="10"
     guidetolerance="10"
     inkscape:pageopacity="0"
     inkscape:pageshadow="2"
     inkscape:window-width="1920"
     inkscape:window-height="1016"
     id="namedview4855"
     showgrid="false"
     inkscape:zoom="1.2840909"
     inkscape:cx="478.7664"
     inkscape:cy="276.3322"
     inkscape:window-x="0"
     inkscape:window-y="36"
     inkscape:window-maximized="1"
     inkscape:current-layer="svg4853" />
  <path
     inkscape:connector-curvature="0"
     style="font-size:12px;vector-effect:non-scaling-stroke;fill:none;fill-rule:evenodd;stroke:#ff0000;stroke-width:0.1;stroke-linecap:round"
     id="front_outsideCutPath"
     d="M 0,3.625 V 3.841 H 0.118 V 4.077 H 0 V 4.313 H 0.118 V 4.549 H 0 V 4.785 H 0.118 V 5.021 H 0 V 5.257 H 0.118 V 5.493 H 0 V 5.729 H 0.118 V 5.965 H 0 V 6.201 H 0.118 V 6.437 H 0 V 6.673 H 0.118 V 6.909 H 0 V 7.125 H 0.258 V 7.007 H 0.494 V 7.125 H 0.73 V 7.007 H 0.966 V 7.125 H 1.202 V 7.007 H 1.438 V 7.125 H 1.674 V 7.007 H 1.91 V 7.125 H 2.146 V 7.007 H 2.382 V 7.125 H 2.618 V 7.007 H 2.854 V 7.125 H 3.09 V 7.007 H 3.326 V 7.125 H 3.562 V 7.007 H 3.798 V 7.125 H 4.034 V 7.007 H 4.27 V 7.125 H 4.506 V 7.007 H 4.742 V 7.125 H 5 V 6.909 H 4.882 V 6.673 H 5 V 6.437 H 4.882 V 6.201 H 5 V 5.965 H 4.882 V 5.729 H 5 V 5.493 H 4.882 V 5.257 H 5 V 5.021 H 4.882 V 4.785 H 5 V 4.549 H 4.882 V 4.313 H 5 V 4.077 H 4.882 V 3.841 H 5 V 3.625 H 4.742 V 3.743 H 4.506 V 3.625 H 4.27 V 3.743 H 4.034 V 3.625 H 3.798 V 3.743 H 3.562 V 3.625 H 3.326 V 3.743 H 3.09 V 3.625 H 2.854 V 3.743 H 2.618 V 3.625 H 2.382 V 3.743 H 2.146 V 3.625 H 1.91 V 3.743 H 1.674 V 3.625 H 1.438 V 3.743 H 1.202 V 3.625 H 0.966 V 3.743 H 0.73 V 3.625 H 0.494 V 3.743 H 0.258 V 3.625 Z" />
  <path
     inkscape:connector-curvature="0"
     style="font-size:12px;vector-effect:non-scaling-stroke;fill:#777777;fill-rule:evenodd;stroke:#777777;stroke-width:0.25000001mm;stroke-linecap:round"
     id="front_labelLayer"
     d="M 3.01,5.639 H 2.953 V 5.397 q 0,-0.029 -0.008,-0.049 A 0.067,0.067 0 0 0 2.933,5.329 0.064,0.064 0 0 0 2.906,5.312 Q 2.896,5.308 2.883,5.307 A 0.15,0.15 0 0 0 2.867,5.306 0.172,0.172 0 0 0 2.835,5.309 Q 2.8,5.316 2.781,5.338 2.754,5.37 2.754,5.443 V 5.639 H 2.697 V 5.265 H 2.743 L 2.752,5.316 H 2.755 A 0.115,0.115 0 0 1 2.8,5.275 0.138,0.138 0 0 1 2.804,5.273 0.154,0.154 0 0 1 2.859,5.259 0.186,0.186 0 0 1 2.874,5.258 0.224,0.224 0 0 1 2.912,5.261 Q 2.933,5.265 2.949,5.272 A 0.102,0.102 0 0 1 2.976,5.291 0.098,0.098 0 0 1 3,5.328 Q 3.01,5.356 3.01,5.395 Z M 1.92,5.265 V 5.309 H 1.825 v 0.33 H 1.768 V 5.309 H 1.701 V 5.283 L 1.768,5.263 V 5.242 A 0.23,0.23 0 0 1 1.773,5.19 Q 1.793,5.104 1.889,5.104 A 0.183,0.183 0 0 1 1.915,5.106 Q 1.927,5.108 1.941,5.111 A 0.367,0.367 0 0 1 1.958,5.116 L 1.944,5.161 A 0.276,0.276 0 0 0 1.922,5.155 Q 1.911,5.153 1.902,5.151 a 0.122,0.122 0 0 0 -0.014,0 A 0.077,0.077 0 0 0 1.869,5.153 0.049,0.049 0 0 0 1.84,5.172 0.066,0.066 0 0 0 1.831,5.189 Q 1.826,5.207 1.825,5.232 a 0.268,0.268 0 0 0 0,0.008 V 5.265 Z M 3.299,5.593 V 5.636 Q 3.291,5.64 3.275,5.643 a 0.212,0.212 0 0 1 -0.003,0 0.246,0.246 0 0 1 -0.016,0.002 Q 3.247,5.646 3.239,5.646 A 0.148,0.148 0 0 1 3.196,5.64 Q 3.131,5.62 3.131,5.532 V 5.309 H 3.077 V 5.282 L 3.131,5.258 3.155,5.178 H 3.188 V 5.265 H 3.296 V 5.309 H 3.188 v 0.22 q 0,0.024 0.007,0.04 a 0.055,0.055 0 0 0 0.009,0.012 0.053,0.053 0 0 0 0.032,0.018 0.076,0.076 0 0 0 0.012,0 0.186,0.186 0 0 0 0.027,-0.002 0.177,0.177 0 0 0 0.002,0 0.307,0.307 0 0 0 0.008,-0.001 Q 3.293,5.594 3.298,5.593 Z M 2.204,5.262 2.196,5.315 Q 2.173,5.31 2.155,5.31 A 0.098,0.098 0 0 0 2.083,5.341 0.135,0.135 0 0 0 2.078,5.346 0.13,0.13 0 0 0 2.046,5.419 0.172,0.172 0 0 0 2.045,5.438 V 5.639 H 1.989 V 5.265 H 2.035 L 2.042,5.334 H 2.045 A 0.192,0.192 0 0 1 2.066,5.304 0.146,0.146 0 0 1 2.095,5.278 q 0.029,-0.02 0.064,-0.02 0.025,0 0.045,0.004 z m 0.394,0.19 q 0,0.091 -0.047,0.143 Q 2.505,5.646 2.424,5.646 A 0.182,0.182 0 0 1 2.371,5.639 0.158,0.158 0 0 1 2.335,5.623 Q 2.296,5.599 2.275,5.555 2.253,5.511 2.253,5.452 2.253,5.36 2.299,5.309 A 0.15,0.15 0 0 1 2.387,5.261 0.22,0.22 0 0 1 2.426,5.258 q 0.079,0 0.125,0.052 A 0.177,0.177 0 0 1 2.59,5.385 q 0.008,0.03 0.008,0.067 z m -0.286,0 A 0.287,0.287 0 0 0 2.315,5.493 Q 2.318,5.514 2.324,5.53 a 0.119,0.119 0 0 0 0.017,0.031 0.093,0.093 0 0 0 0.06,0.036 0.141,0.141 0 0 0 0.024,0.002 q 0.056,0 0.085,-0.038 A 0.122,0.122 0 0 0 2.529,5.524 Q 2.534,5.507 2.537,5.486 A 0.299,0.299 0 0 0 2.539,5.452 0.283,0.283 0 0 0 2.536,5.411 Q 2.533,5.391 2.527,5.374 A 0.117,0.117 0 0 0 2.51,5.343 0.093,0.093 0 0 0 2.452,5.309 0.143,0.143 0 0 0 2.425,5.306 q -0.056,0 -0.084,0.037 -0.029,0.036 -0.029,0.109 z" />
  <path
     inkscape:connector-curvature="0"
     style="font-size:12px;vector-effect:non-scaling-stroke;fill:none;fill-rule:evenodd;stroke:#ff0000;stroke-width:0.1;stroke-linecap:round"
     id="left_outsideCutPath"
     d="M 5.243,3.625 V 3.841 H 5.125 V 4.077 H 5.243 V 4.313 H 5.125 V 4.549 H 5.243 V 4.785 H 5.125 V 5.021 H 5.243 V 5.257 H 5.125 V 5.493 H 5.243 V 5.729 H 5.125 V 5.965 H 5.243 V 6.201 H 5.125 V 6.437 H 5.243 V 6.673 H 5.125 V 6.909 H 5.243 V 7.125 H 5.382 V 7.007 H 5.618 V 7.125 H 5.757 V 6.909 H 5.875 V 6.673 H 5.757 V 6.437 H 5.875 V 6.201 H 5.757 V 5.965 H 5.875 V 5.729 H 5.757 V 5.493 H 5.875 V 5.257 H 5.757 V 5.021 H 5.875 V 4.785 H 5.757 V 4.549 H 5.875 V 4.313 H 5.757 V 4.077 H 5.875 V 3.841 H 5.757 V 3.625 H 5.618 V 3.743 H 5.382 V 3.625 Z" />
  <path
     inkscape:connector-curvature="0"
     style="font-size:12px;vector-effect:non-scaling-stroke;fill:none;fill-rule:evenodd;stroke:#ff0000;stroke-width:0.1;stroke-linecap:round"
     id="top_outsideCutPath"
     d="M 6.118,6.493 V 6.632 H 6 v 0.236 h 0.118 v 0.139 h 0.14 V 7.125 H 6.494 V 7.007 H 6.73 V 7.125 H 6.966 V 7.007 H 7.202 V 7.125 H 7.438 V 7.007 H 7.674 V 7.125 H 7.91 V 7.007 H 8.146 V 7.125 H 8.382 V 7.007 H 8.618 V 7.125 H 8.854 V 7.007 H 9.09 V 7.125 H 9.326 V 7.007 H 9.562 V 7.125 H 9.798 V 7.007 h 0.236 V 7.125 H 10.27 V 7.007 h 0.236 v 0.118 h 0.236 V 7.007 h 0.14 V 6.868 H 11 V 6.632 H 10.882 V 6.493 h -0.14 V 6.375 H 10.506 V 6.493 H 10.27 V 6.375 H 10.034 V 6.493 H 9.798 V 6.375 H 9.562 V 6.493 H 9.326 V 6.375 H 9.09 V 6.493 H 8.854 V 6.375 H 8.618 V 6.493 H 8.382 V 6.375 H 8.146 V 6.493 H 7.91 V 6.375 H 7.674 V 6.493 H 7.438 V 6.375 H 7.202 V 6.493 H 6.966 V 6.375 H 6.73 V 6.493 H 6.494 V 6.375 H 6.258 v 0.118 z" />
  <path
     inkscape:connector-curvature="0"
     style="font-size:12px;vector-effect:non-scaling-stroke;fill:none;fill-rule:evenodd;stroke:#ff0000;stroke-width:0.1;stroke-linecap:round"
     id="back_outsideCutPath"
     d="M 0,0 V 0.216 H 0.118 V 0.452 H 0 V 0.688 H 0.118 V 0.924 H 0 V 1.16 H 0.118 V 1.396 H 0 V 1.632 H 0.118 V 1.868 H 0 V 2.104 H 0.118 V 2.34 H 0 V 2.576 H 0.118 V 2.812 H 0 V 3.048 H 0.118 V 3.284 H 0 V 3.5 H 0.258 V 3.382 H 0.494 V 3.5 H 0.73 V 3.382 H 0.966 V 3.5 H 1.202 V 3.382 H 1.438 V 3.5 H 1.674 V 3.382 H 1.91 V 3.5 H 2.146 V 3.382 H 2.382 V 3.5 H 2.618 V 3.382 H 2.854 V 3.5 H 3.09 V 3.382 H 3.326 V 3.5 H 3.562 V 3.382 H 3.798 V 3.5 H 4.034 V 3.382 H 4.27 V 3.5 H 4.506 V 3.382 H 4.742 V 3.5 H 5 V 3.284 H 4.882 V 3.048 H 5 V 2.812 H 4.882 V 2.576 H 5 V 2.34 H 4.882 V 2.104 H 5 V 1.868 H 4.882 V 1.632 H 5 V 1.396 H 4.882 V 1.16 H 5 V 0.924 H 4.882 V 0.688 H 5 V 0.452 H 4.882 V 0.216 H 5 V 0 H 4.742 V 0.118 H 4.506 V 0 H 4.27 V 0.118 H 4.034 V 0 H 3.798 V 0.118 H 3.562 V 0 H 3.326 V 0.118 H 3.09 V 0 H 2.854 V 0.118 H 2.618 V 0 H 2.382 V 0.118 H 2.146 V 0 H 1.91 V 0.118 H 1.674 V 0 H 1.438 V 0.118 H 1.202 V 0 H 0.966 V 0.118 H 0.73 V 0 H 0.494 V 0.118 H 0.258 V 0 Z" />
  <path
     inkscape:connector-curvature="0"
     style="font-size:12px;vector-effect:non-scaling-stroke;fill:#777777;fill-rule:evenodd;stroke:#777777;stroke-width:0.25000001mm;stroke-linecap:round"
     id="back_labelLayer"
     d="M 2.979,1.821 H 2.982 A 0.336,0.336 0 0 1 2.99,1.81 Q 3.004,1.791 3.027,1.766 L 3.148,1.638 H 3.215 L 3.063,1.798 3.226,2.012 H 3.157 L 3.025,1.835 2.982,1.872 v 0.14 H 2.926 V 1.481 h 0.056 v 0.282 a 0.378,0.378 0 0 1 0,0.01 Q 2.981,1.791 2.979,1.819 a 1.389,1.389 0 0 1 0,0.002 z M 1.831,1.964 H 1.827 L 1.815,2.012 H 1.774 V 1.481 H 1.831 V 1.61 q 0,0.043 -0.003,0.078 H 1.831 A 0.129,0.129 0 0 1 1.925,1.633 0.194,0.194 0 0 1 1.949,1.632 0.173,0.173 0 0 1 1.997,1.638 0.13,0.13 0 0 1 2.063,1.682 q 0.041,0.051 0.041,0.143 0,0.065 -0.02,0.11 A 0.159,0.159 0 0 1 2.063,1.968 0.134,0.134 0 0 1 1.968,2.018 0.192,0.192 0 0 1 1.949,2.019 0.172,0.172 0 0 1 1.905,2.014 0.15,0.15 0 0 1 1.882,2.006 0.126,0.126 0 0 1 1.831,1.964 Z M 2.476,2.012 H 2.434 L 2.422,1.959 H 2.42 A 0.235,0.235 0 0 1 2.401,1.98 Q 2.382,1.999 2.364,2.007 A 0.131,0.131 0 0 1 2.337,2.015 Q 2.324,2.018 2.308,2.019 a 0.255,0.255 0 0 1 -0.014,0 Q 2.25,2.019 2.221,2.001 A 0.098,0.098 0 0 1 2.207,1.991 0.093,0.093 0 0 1 2.179,1.941 0.143,0.143 0 0 1 2.175,1.909 q 0,-0.114 0.182,-0.119 L 2.42,1.788 V 1.765 Q 2.42,1.721 2.401,1.7 A 0.058,0.058 0 0 0 2.378,1.684 Q 2.362,1.679 2.341,1.679 A 0.185,0.185 0 0 0 2.298,1.684 Q 2.279,1.688 2.257,1.697 A 0.38,0.38 0 0 0 2.235,1.707 L 2.217,1.664 A 0.262,0.262 0 0 1 2.268,1.643 0.298,0.298 0 0 1 2.278,1.64 0.263,0.263 0 0 1 2.344,1.632 0.24,0.24 0 0 1 2.381,1.634 q 0.04,0.007 0.062,0.027 A 0.09,0.09 0 0 1 2.467,1.697 Q 2.472,1.712 2.474,1.73 A 0.223,0.223 0 0 1 2.476,1.757 Z M 2.842,1.651 2.825,1.699 A 0.252,0.252 0 0 0 2.798,1.69 0.301,0.301 0 0 0 2.784,1.686 0.234,0.234 0 0 0 2.766,1.683 Q 2.758,1.682 2.75,1.681 a 0.126,0.126 0 0 0 -0.005,0 q -0.102,0 -0.113,0.115 a 0.314,0.314 0 0 0 -0.001,0.031 0.275,0.275 0 0 0 0.002,0.04 q 0.003,0.02 0.01,0.037 A 0.118,0.118 0 0 0 2.658,1.933 0.09,0.09 0 0 0 2.717,1.968 0.137,0.137 0 0 0 2.741,1.97 0.238,0.238 0 0 0 2.806,1.96 0.293,0.293 0 0 0 2.837,1.95 V 2 A 0.161,0.161 0 0 1 2.798,2.014 Q 2.779,2.018 2.758,2.019 a 0.311,0.311 0 0 1 -0.016,0 A 0.212,0.212 0 0 1 2.691,2.013 0.144,0.144 0 0 1 2.616,1.969 0.164,0.164 0 0 1 2.582,1.907 Q 2.572,1.872 2.572,1.828 2.572,1.76 2.596,1.714 A 0.156,0.156 0 0 1 2.617,1.682 0.147,0.147 0 0 1 2.698,1.636 0.223,0.223 0 0 1 2.746,1.631 q 0.027,0 0.054,0.006 A 0.283,0.283 0 0 1 2.816,1.641 Q 2.824,1.643 2.83,1.645 A 0.112,0.112 0 0 1 2.842,1.65 Z M 1.94,1.679 A 0.159,0.159 0 0 0 1.91,1.682 Q 1.892,1.686 1.879,1.693 A 0.075,0.075 0 0 0 1.857,1.713 Q 1.834,1.742 1.831,1.806 a 0.437,0.437 0 0 0 0,0.019 0.375,0.375 0 0 0 0.002,0.039 Q 1.837,1.903 1.85,1.927 A 0.086,0.086 0 0 0 1.857,1.938 Q 1.881,1.968 1.93,1.971 A 0.182,0.182 0 0 0 1.942,1.972 0.113,0.113 0 0 0 1.974,1.968 0.082,0.082 0 0 0 2.02,1.934 0.13,0.13 0 0 0 2.036,1.899 Q 2.041,1.882 2.043,1.862 A 0.325,0.325 0 0 0 2.045,1.824 q 0,-0.069 -0.023,-0.105 A 0.094,0.094 0 0 0 2.02,1.715 0.083,0.083 0 0 0 1.967,1.682 0.131,0.131 0 0 0 1.94,1.679 Z M 2.419,1.862 V 1.828 L 2.362,1.831 Q 2.306,1.833 2.276,1.846 A 0.087,0.087 0 0 0 2.265,1.852 q -0.03,0.018 -0.03,0.058 0,0.027 0.014,0.042 a 0.051,0.051 0 0 0 0.004,0.004 0.062,0.062 0 0 0 0.024,0.013 q 0.009,0.002 0.02,0.003 a 0.128,0.128 0 0 0 0.009,0.001 q 0.045,0 0.074,-0.022 A 0.095,0.095 0 0 0 2.389,1.943 0.095,0.095 0 0 0 2.415,1.896 0.144,0.144 0 0 0 2.419,1.863 Z" />
  <path
     inkscape:connector-curvature="0"
     style="font-size:12px;vector-effect:non-scaling-stroke;fill:none;fill-rule:evenodd;stroke:#ff0000;stroke-width:0.1;stroke-linecap:round"
     id="right_outsideCutPath"
     d="M 5.243,0 V 0.216 H 5.125 V 0.452 H 5.243 V 0.688 H 5.125 V 0.924 H 5.243 V 1.16 H 5.125 V 1.396 H 5.243 V 1.632 H 5.125 V 1.868 H 5.243 V 2.104 H 5.125 V 2.34 H 5.243 V 2.576 H 5.125 V 2.812 H 5.243 V 3.048 H 5.125 V 3.284 H 5.243 V 3.5 H 5.382 V 3.382 H 5.618 V 3.5 H 5.757 V 3.284 H 5.875 V 3.048 H 5.757 V 2.812 H 5.875 V 2.576 H 5.757 V 2.34 H 5.875 V 2.104 H 5.757 V 1.868 H 5.875 V 1.632 H 5.757 V 1.396 H 5.875 V 1.16 H 5.757 V 0.924 H 5.875 V 0.688 H 5.757 V 0.452 H 5.875 V 0.216 H 5.757 V 0 H 5.618 V 0.118 H 5.382 V 0 Z" />
  <path
     inkscape:connector-curvature="0"
     style="font-size:12px;vector-effect:non-scaling-stroke;fill:none;fill-rule:evenodd;stroke:#ff0000;stroke-width:0.1;stroke-linecap:round"
     id="bottom_outsideCutPath"
     d="M 6.118,5.618 V 5.757 H 6 v 0.236 h 0.118 v 0.139 h 0.14 V 6.25 H 6.494 V 6.132 H 6.73 V 6.25 H 6.966 V 6.132 H 7.202 V 6.25 H 7.438 V 6.132 H 7.674 V 6.25 H 7.91 V 6.132 H 8.146 V 6.25 H 8.382 V 6.132 H 8.618 V 6.25 H 8.854 V 6.132 H 9.09 V 6.25 H 9.326 V 6.132 H 9.562 V 6.25 H 9.798 V 6.132 h 0.236 V 6.25 H 10.27 V 6.132 h 0.236 V 6.25 h 0.236 V 6.132 h 0.14 V 5.993 H 11 V 5.757 H 10.882 V 5.618 h -0.14 V 5.5 H 10.506 V 5.618 H 10.27 V 5.5 H 10.034 V 5.618 H 9.798 V 5.5 H 9.562 V 5.618 H 9.326 V 5.5 H 9.09 V 5.618 H 8.854 V 5.5 H 8.618 V 5.618 H 8.382 V 5.5 H 8.146 V 5.618 H 7.91 V 5.5 H 7.674 V 5.618 H 7.438 V 5.5 H 7.202 V 5.618 H 6.966 V 5.5 H 6.73 V 5.618 H 6.494 V 5.5 H 6.258 v 0.118 z" />
</svg>
